<svg width="28" height="28" viewBox="0 0 28 28" fill="none" xmlns="http://www.w3.org/2000/svg">
<path d="M4.82668 21.8394C4.65789 20.2812 4.48664 18.0616 4.50016 16.4998C4.46865 15.7494 4.50016 15.3933 4.50016 14.4998C4.50016 13.6256 4.47943 12.3815 4.50018 11.4998C4.56343 8.81145 5.84066 7.54237 7.17059 6.58006C8.36826 5.71346 9.7158 5.26361 11.9115 4.99968C14.8726 4.64375 15.7438 4.77588 17.879 5.13668C19.5879 5.42544 21.0787 6.33288 21.6637 6.88496C22.5068 7.68071 23.1621 8.6818 23.5442 9.73582C24.1101 11.2963 24.1103 13.2456 23.5442 14.658C22.9187 16.2188 21.6637 17.2533 20.3714 17.8594C18.6148 18.6832 14.891 19.2136 12.1982 18.9012C10.8518 18.745 9.00015 17.9998 8.04394 19.5849C7.56622 20.3768 6.96976 21.7676 6.50015 22.5485C6.12833 23.1668 5.50015 23.4998 5.02414 22.5485C4.95291 22.4061 4.83396 21.9066 4.82668 21.8394Z" stroke="#483E00" stroke-width="1.74603" stroke-linecap="round"/>
<path d="M9.65629 12.0843C9.65629 13.1234 10.9235 12.0843 10.3395 11.7886C9.96431 11.5986 9.71387 11.7887 9.65595 12.0537" stroke="#483E00" stroke-width="1.74603" stroke-linecap="round"/>
<path d="M14.3596 12.5283C15.3887 12.6719 14.5346 11.2732 14.1611 11.8108C13.9211 12.1561 14.0747 12.4304 14.3292 12.5244" stroke="#483E00" stroke-width="1.74603" stroke-linecap="round"/>
<path d="M18.102 12.1131C18.1749 13.1496 19.3661 12.0241 18.7628 11.7702C18.3752 11.607 18.1387 11.8141 18.0995 12.0826" stroke="#483E00" stroke-width="1.74603" stroke-linecap="round"/>
</svg>
