<svg width="33" height="32" viewBox="0 0 33 32" fill="none" xmlns="http://www.w3.org/2000/svg">
<g clip-path="url(#clip0_58_419)">
<path fill-rule="evenodd" clip-rule="evenodd" d="M31.763 12.7164L25.8333 15.6812V19.7838C25.8333 21.4035 25.2385 23.1569 23.7388 24.2562C22.1815 25.3977 19.5546 26.8572 16.2571 26.8572C14.2302 26.8572 12.5197 26.2796 11.1667 25.5496V26.8572C11.1667 28.3299 9.97276 29.5238 8.5 29.5238C7.02724 29.5238 5.83333 28.3299 5.83333 26.8572V24.8572C5.83333 23.8701 6.3696 23.0083 7.16667 22.5473V15.6812L1.23705 12.7164C0.785337 12.4906 0.5 12.0289 0.5 11.5238C0.5 11.0188 0.785337 10.5571 1.23705 10.3313L15.9037 2.99794C16.2791 2.81026 16.7209 2.81026 17.0963 2.99794L31.763 10.3313C32.2147 10.5571 32.5 11.0188 32.5 11.5238C32.5 12.0289 32.2147 12.4906 31.763 12.7164ZM9.83333 17.0146L15.9037 20.0497C16.2791 20.2374 16.7209 20.2374 17.0963 20.0497L23.1667 17.0146V19.7838C23.1667 20.8079 22.7948 21.6418 22.1623 22.1054C20.8447 23.0712 18.767 24.1905 16.2571 24.1905C13.6696 24.1905 11.7239 22.9182 10.5827 21.8976C10.106 21.4713 9.83333 20.7685 9.83333 19.8869V17.0146ZM4.81476 11.5238L9.07046 13.6517C9.08726 13.6597 9.10386 13.668 9.12026 13.6766L9.16663 13.6998L15.9037 10.3312C16.5624 10.0019 17.3633 10.2689 17.6926 10.9275C18.0219 11.5862 17.7549 12.3871 17.0963 12.7164L12.1481 15.1905L16.5 17.3665L28.1852 11.5238L16.5 5.68122L4.81476 11.5238Z" fill="white"/>
</g>
<defs>
<clipPath id="clip0_58_419">
<rect width="32" height="32" fill="white" transform="translate(0.5)"/>
</clipPath>
</defs>
</svg>
