<svg width="28" height="45" viewBox="0 0 28 45" fill="none" xmlns="http://www.w3.org/2000/svg">
<path d="M8.36968 25.001C7.53323 25.001 7 24.396 7 23.417V5.22384C7 3.12293 8.05601 2.00098 10.0426 2.00098H17.9574C19.9335 2.00098 21 3.12293 21 5.22384V23.417C21 24.396 20.4668 25.001 19.6303 25.001C19.0657 25.001 18.7207 24.715 17.8842 23.857L14.0889 19.8862C14.0366 19.8422 13.953 19.8422 13.9111 19.8862L10.1158 23.857C9.27931 24.715 8.92382 25.001 8.36968 25.001Z" fill="white"/>
<path d="M10.4903 40.121C9.29028 40.121 8.31828 39.605 7.61028 38.657L8.47428 37.853C9.07428 38.657 9.71028 39.029 10.5263 39.029C11.4983 39.029 12.1223 38.489 12.1223 37.601C12.1223 36.689 11.4623 36.197 10.2383 36.197H9.66228V35.177H10.2383C11.2943 35.177 11.9183 34.673 11.9183 33.833C11.9183 33.041 11.3783 32.549 10.5023 32.549C9.72228 32.549 9.12228 32.885 8.57028 33.617L7.71828 32.861C8.40228 31.961 9.36228 31.481 10.5023 31.481C12.0983 31.481 13.1303 32.369 13.1303 33.761C13.1303 34.625 12.6623 35.273 11.8823 35.585C12.8063 35.885 13.3463 36.605 13.3463 37.613C13.3463 39.089 12.1943 40.121 10.4903 40.121ZM17.2288 40.121C16.2328 40.121 15.2968 39.713 14.4568 38.813L15.2248 37.925C15.9568 38.705 16.5568 39.029 17.2408 39.029C18.2368 39.029 18.9328 38.297 18.9328 37.241C18.9328 36.209 18.2488 35.549 17.1928 35.549C16.6888 35.549 16.2208 35.705 15.7528 36.029L14.9128 35.849L15.2008 31.601H19.7248V32.693H16.6888C16.3048 32.693 16.1848 32.933 16.1728 33.185L16.0888 34.829C16.5088 34.577 16.9168 34.469 17.4448 34.469C19.0528 34.469 20.1448 35.585 20.1448 37.229C20.1448 38.969 18.9808 40.121 17.2288 40.121Z" fill="white"/>
</svg>
