<svg width="28" height="29" viewBox="0 0 28 29" fill="none" xmlns="http://www.w3.org/2000/svg">
<rect y="0.643616" width="28" height="28" rx="14" fill="#00B444"/>
<path d="M10.1768 20.5665C9.9082 20.5665 9.69336 20.4688 9.53223 20.2735C9.37598 20.0831 9.29785 19.8292 9.29785 19.5118V9.21393C9.29785 8.89655 9.37598 8.64264 9.53223 8.45221C9.69336 8.26178 9.9082 8.16656 10.1768 8.16656C10.3232 8.16656 10.4624 8.19342 10.5942 8.24713C10.7261 8.29596 10.8652 8.36188 11.0117 8.44489L19.5518 13.3887C19.8594 13.5645 20.0718 13.7232 20.189 13.8648C20.311 14.0015 20.3721 14.1675 20.3721 14.3629C20.3721 14.5582 20.311 14.7266 20.189 14.8682C20.0718 15.0049 19.8594 15.1636 19.5518 15.3443L11.0117 20.2808C10.8652 20.3687 10.7261 20.4371 10.5942 20.4859C10.4624 20.5396 10.3232 20.5665 10.1768 20.5665Z" fill="white"/>
</svg>
