<svg width="20" height="20" viewBox="0 0 20 20" fill="none" xmlns="http://www.w3.org/2000/svg">
<mask id="mask0_1_646" style="mask-type:alpha" maskUnits="userSpaceOnUse" x="0" y="0" width="20" height="20">
<rect width="20" height="20" fill="#D9D9D9"/>
</mask>
<g mask="url(#mask0_1_646)">
<path d="M3.33379 18.3338C2.87546 18.3338 2.48309 18.1706 2.15671 17.8442C1.83032 17.5178 1.66712 17.1254 1.66712 16.6671V8.33378C1.66712 7.87545 1.83032 7.48309 2.15671 7.1567C2.48309 6.83031 2.87546 6.66711 3.33379 6.66711H16.6671C17.1255 6.66711 17.5178 6.83031 17.8442 7.1567C18.1706 7.48309 18.3338 7.87545 18.3338 8.33378V16.6671C18.3338 17.1254 18.1706 17.5178 17.8442 17.8442C17.5178 18.1706 17.1255 18.3338 16.6671 18.3338H3.33379ZM8.33379 14.8995C8.33379 15.2989 8.77886 15.5371 9.11114 15.3155L12.7098 12.9165C13.0066 12.7186 13.0066 12.2823 12.7098 12.0844L9.11114 9.68535C8.77886 9.46383 8.33379 9.70203 8.33379 10.1014V14.8995ZM4.16712 5.83378C3.70688 5.83378 3.33379 5.46069 3.33379 5.00045C3.33379 4.54021 3.70688 4.16711 4.16712 4.16711H15.8338C16.294 4.16711 16.6671 4.54021 16.6671 5.00045C16.6671 5.46069 16.294 5.83378 15.8338 5.83378H4.16712ZM6.66712 3.33378C6.20689 3.33378 5.83379 2.96069 5.83379 2.50045C5.83379 2.04021 6.20688 1.66711 6.66712 1.66711H13.3338C13.794 1.66711 14.1671 2.04021 14.1671 2.50045C14.1671 2.96069 13.794 3.33378 13.3338 3.33378H6.66712Z" fill="white"/>
</g>
</svg>
