<svg width="28" height="28" viewBox="0 0 28 28" fill="none" xmlns="http://www.w3.org/2000/svg">
<path d="M23.5573 17.8685C23.0632 16.7728 21.4669 14.6843 19.7004 14.5234C18.0319 14.3713 17.0723 15.2878 16.7925 16.2379C16.3867 17.6135 17.247 18.8552 18.1918 19.1506C22.8199 20.5958 22.1001 12.2664 21.7237 6.938C21.6678 6.14638 20.8705 5.6187 20.1245 5.88949C17.2112 6.94704 14.3159 8.05145 11.6048 9.11669C10.7584 9.44926 10.2259 10.2894 10.268 11.1979C10.3965 13.9733 10.4284 16.7167 10.3754 19.4135C10.3673 19.8505 9.67182 23.7868 6.42599 22.4446C4.6002 21.6894 4.81127 18.7487 6.21655 17.9839C8.8561 16.5474 12.3056 19.0359 12.674 19.3055" stroke="#002A48" stroke-width="1.75" stroke-linecap="round" stroke-linejoin="round"/>
</svg>
