<svg width="32" height="32" viewBox="0 0 32 32" fill="none" xmlns="http://www.w3.org/2000/svg">
<path d="M13.3733 18.1882C13.0978 18.3868 12.8356 18.4127 12.5867 18.2659C12.3467 18.1106 12.2889 17.8602 12.4133 17.5149L13.4533 14.511L10.76 12.6464C10.5733 12.5169 10.4667 12.3659 10.44 12.1932C10.4222 12.0206 10.4711 11.8695 10.5867 11.74C10.7022 11.6106 10.8756 11.5458 11.1067 11.5458L14.4267 11.5588L15.4267 8.55478C15.5333 8.24402 15.7289 8.08865 16.0133 8.08865C16.2978 8.08865 16.4933 8.24402 16.6 8.55478L17.5867 11.5588L20.9067 11.5458C21.1467 11.5458 21.32 11.6106 21.4267 11.74C21.5422 11.8695 21.5867 12.0206 21.56 12.1932C21.5422 12.3659 21.44 12.5169 21.2533 12.6464L18.5733 14.511L19.6 17.5149C19.7333 17.8689 19.6756 18.1192 19.4267 18.2659C19.1778 18.4127 18.92 18.3868 18.6533 18.1882L16.0133 16.3108L13.3733 18.1882ZM10.0533 29C9.51111 29 9.09333 28.8317 8.8 28.495C8.50667 28.1584 8.36 27.7052 8.36 27.1355V24.1833H7.86667C6.66667 24.1833 5.62667 23.9545 4.74667 23.497C3.87556 23.0395 3.2 22.3748 2.72 21.503C2.24 20.6311 2 19.5867 2 18.3695V8.81375C2 7.59661 2.23556 6.55644 2.70667 5.69323C3.17778 4.82138 3.85778 4.15671 4.74667 3.6992C5.64444 3.23307 6.72444 3 7.98667 3H24.0133C25.2844 3 26.3644 3.23307 27.2533 3.6992C28.1511 4.16534 28.8311 4.83001 29.2933 5.69323C29.7644 6.55644 30 7.59661 30 8.81375V18.3695C30 19.5867 29.7644 20.6311 29.2933 21.503C28.8311 22.3662 28.1511 23.0309 27.2533 23.497C26.3644 23.9545 25.2844 24.1833 24.0133 24.1833H16.5867L12.28 27.8735C11.8178 28.262 11.4222 28.5468 11.0933 28.7281C10.7733 28.9094 10.4267 29 10.0533 29ZM10.7067 26.0996L14.6933 22.2799C14.9778 22.0037 15.2356 21.8224 15.4667 21.7361C15.7067 21.6411 16.0267 21.5936 16.4267 21.5936H23.9067C25.0622 21.5936 25.92 21.3131 26.48 20.752C27.0489 20.1909 27.3333 19.3622 27.3333 18.2659V8.91733C27.3333 7.82105 27.0489 6.99236 26.48 6.43127C25.92 5.87019 25.0622 5.58964 23.9067 5.58964H8.09333C6.93778 5.58964 6.08 5.87019 5.52 6.43127C4.96 6.99236 4.68 7.82105 4.68 8.91733V18.2659C4.68 19.3622 4.96 20.1909 5.52 20.752C6.08 21.3131 6.93778 21.5936 8.09333 21.5936H9.64C10.0044 21.5936 10.2711 21.6756 10.44 21.8396C10.6178 21.995 10.7067 22.2583 10.7067 22.6295V26.0996Z" fill="white"/>
</svg>
