<svg width="32" height="32" viewBox="0 0 32 32" fill="none" xmlns="http://www.w3.org/2000/svg">
<path d="M7.6472 29C5.21573 29 4 28.1372 4 26.4116C4 25.4228 4.28605 24.4146 4.85816 23.387C5.43027 22.3497 6.24553 21.3949 7.30393 20.5224C8.37187 19.6402 9.64005 18.9325 11.1085 18.3993C12.5864 17.8565 14.2169 17.585 16 17.585C17.7926 17.585 19.4231 17.8565 20.8915 18.3993C22.36 18.9325 23.6234 19.6402 24.6818 20.5224C25.7497 21.3949 26.5697 22.3497 27.1418 23.387C27.7139 24.4146 28 25.4228 28 26.4116C28 28.1372 26.7843 29 24.3528 29H7.6472ZM7.47557 26.2081H24.5244C24.6675 26.2081 24.7628 26.179 24.8105 26.1208C24.8677 26.0723 24.8963 25.9948 24.8963 25.8881C24.8963 25.4034 24.6961 24.8509 24.2956 24.2304C23.9046 23.61 23.3278 23.0089 22.565 22.4273C21.8117 21.8359 20.882 21.3464 19.7759 20.9586C18.6698 20.5708 17.4112 20.377 16 20.377C14.5793 20.377 13.3159 20.5708 12.2098 20.9586C11.1132 21.3464 10.1836 21.8359 9.42074 22.4273C8.65793 23.0089 8.08105 23.61 7.69011 24.2304C7.29917 24.8509 7.10369 25.4034 7.10369 25.8881C7.10369 25.9948 7.1323 26.0723 7.18951 26.1208C7.24672 26.179 7.34207 26.2081 7.47557 26.2081ZM16 16.1163C14.8939 16.1163 13.8832 15.8207 12.9678 15.2293C12.062 14.638 11.3373 13.843 10.7938 12.8445C10.2598 11.846 9.99285 10.736 9.99285 9.51454C9.99285 8.32215 10.2598 7.23154 10.7938 6.24273C11.3373 5.25392 12.0667 4.46868 12.9821 3.88702C13.8975 3.29567 14.9035 3 16 3C17.1061 3 18.1168 3.29083 19.0322 3.87248C19.9476 4.45414 20.6722 5.23937 21.2062 6.22819C21.7497 7.20731 22.0215 8.29791 22.0215 9.5C22.0215 10.7118 21.7497 11.8218 21.2062 12.83C20.6722 13.8382 19.9476 14.638 19.0322 15.2293C18.1263 15.8207 17.1156 16.1163 16 16.1163ZM16 13.3389C16.5816 13.3389 17.1156 13.1741 17.6019 12.8445C18.0882 12.5052 18.4744 12.0496 18.7604 11.4776C19.056 10.896 19.2038 10.2368 19.2038 9.5C19.2038 8.78262 19.056 8.14765 18.7604 7.59508C18.4744 7.03281 18.0882 6.59172 17.6019 6.27181C17.1251 5.9519 16.5912 5.79195 16 5.79195C15.4279 5.79195 14.8987 5.9519 14.4124 6.27181C13.9261 6.59172 13.5352 7.03281 13.2396 7.59508C12.9535 8.15735 12.8105 8.79232 12.8105 9.5C12.8105 10.2465 12.9535 10.9105 13.2396 11.4922C13.5352 12.0641 13.9261 12.5149 14.4124 12.8445C14.8987 13.1741 15.4279 13.3389 16 13.3389Z" fill="white"/>
</svg>
