<svg width="26" height="26" viewBox="0 0 26 26" fill="none" xmlns="http://www.w3.org/2000/svg">
<path d="M10.8758 1.22618C12.0958 0.161906 13.9038 0.161913 15.1238 1.22618L25.6248 10.3893C26.0776 10.7843 26.128 12.4754 25.7371 12.9332C25.3461 13.3906 24.6616 13.4413 24.2088 13.0465L22.7498 11.7731V21.193C22.7498 23.611 20.81 25.5718 18.4168 25.5719H7.58283C5.18965 25.5718 3.24982 23.611 3.24982 21.193V11.7731L1.79084 13.0465C1.33811 13.4412 0.654521 13.3904 0.263494 12.9332C-0.12758 12.4757 -0.0780005 10.7844 0.374822 10.3893L10.8758 1.22618ZM11.7137 12.3268C11.0472 11.9421 10.214 12.4225 10.2137 13.192V19.3785C10.2137 20.1482 11.0471 20.6293 11.7137 20.2447L17.0711 17.152C17.7378 16.7671 17.7378 15.8044 17.0711 15.4195L11.7137 12.3268Z" fill="#00B444"/>
</svg>
