<svg width="28" height="29" viewBox="0 0 28 29" fill="none" xmlns="http://www.w3.org/2000/svg">
<rect y="0.643616" width="28" height="28" rx="8" fill="#EAF3F1"/>
<path d="M12.5132 20.9986C12.0591 20.9986 11.6807 20.8179 11.3779 20.4566L7.59863 15.879C7.4668 15.7276 7.37402 15.5811 7.32031 15.4395C7.2666 15.2979 7.23975 15.1514 7.23975 15.0001C7.23975 14.6534 7.35449 14.3677 7.58398 14.1431C7.81836 13.9136 8.11133 13.7989 8.46289 13.7989C8.85352 13.7989 9.17822 13.9576 9.43701 14.275L12.4839 18.0469L18.4678 8.59137C18.6191 8.36188 18.7754 8.20074 18.9365 8.10797C19.1025 8.01031 19.3052 7.96149 19.5444 7.96149C19.896 7.96149 20.1865 8.07379 20.416 8.2984C20.6455 8.52301 20.7603 8.80621 20.7603 9.14801C20.7603 9.27496 20.7383 9.4068 20.6943 9.54352C20.6504 9.68024 20.582 9.82184 20.4893 9.96832L13.6704 20.4053C13.4019 20.8008 13.0161 20.9986 12.5132 20.9986Z" fill="#00B444"/>
</svg>
