<svg width="33" height="32" viewBox="0 0 33 32" fill="none" xmlns="http://www.w3.org/2000/svg">
<path d="M11.9973 29C11.0991 29 10.2955 28.7935 9.58636 28.3804C8.88515 27.9673 8.3297 27.4044 7.92 26.6916C7.51818 25.9869 7.31727 25.1931 7.31727 24.3103C7.31727 23.4598 7.45909 22.7389 7.74273 22.1477C8.02636 21.5564 8.37303 21.0583 8.78273 20.6533C9.2003 20.2483 9.60212 19.8919 9.98818 19.5841C10.3191 19.3087 10.5909 19.0698 10.8036 18.8673C11.0242 18.6567 11.2055 18.4421 11.3473 18.2234C11.4891 18.0047 11.6191 17.7576 11.7373 17.4822C11.8555 17.2069 12.0091 16.8545 12.1982 16.4252C12.4582 15.8016 12.7536 15.2224 13.0845 14.6878C13.4233 14.1452 13.8606 13.7078 14.3964 13.3757C14.9321 13.0355 15.6294 12.8654 16.4882 12.8654C17.347 12.8654 18.0442 13.0355 18.58 13.3757C19.1158 13.7078 19.5491 14.1452 19.88 14.6878C20.2188 15.2224 20.5182 15.8016 20.7782 16.4252C20.983 16.8788 21.1445 17.2474 21.2627 17.5308C21.3809 17.8143 21.5188 18.0695 21.6764 18.2963C21.8182 18.5069 21.9915 18.7093 22.1964 18.9037C22.4091 19.0981 22.673 19.3249 22.9882 19.5841C23.3742 19.8919 23.7721 20.2483 24.1818 20.6533C24.5994 21.0583 24.9461 21.5564 25.2218 22.1477C25.5055 22.7389 25.6473 23.4598 25.6473 24.3103C25.6473 25.1931 25.4464 25.9869 25.0445 26.6916C24.6427 27.4044 24.0873 27.9673 23.3782 28.3804C22.677 28.7935 21.8773 29 20.9791 29C20.3803 29 19.8367 28.9393 19.3482 28.8178C18.8597 28.7044 18.45 28.5748 18.1191 28.429C17.7724 28.2832 17.477 28.1495 17.2327 28.028C16.9885 27.9146 16.7403 27.8579 16.4882 27.8579C16.2282 27.8579 15.9761 27.9146 15.7318 28.028C15.4955 28.1495 15.2 28.2832 14.8455 28.429C14.5303 28.5748 14.1285 28.7044 13.64 28.8178C13.1515 28.9393 12.6039 29 11.9973 29ZM12.1745 26.3636C12.7103 26.3636 13.1909 26.2704 13.6164 26.0841C14.0497 25.8978 14.487 25.7075 14.9282 25.5131C15.3773 25.3268 15.8973 25.2336 16.4882 25.2336C17.0791 25.2336 17.5952 25.3268 18.0364 25.5131C18.4855 25.7075 18.9227 25.8978 19.3482 26.0841C19.7815 26.2704 20.2661 26.3636 20.8018 26.3636C21.4479 26.3636 21.9758 26.1692 22.3855 25.7804C22.7952 25.3997 23 24.9097 23 24.3103C23 23.7757 22.8897 23.3464 22.6691 23.0224C22.4485 22.6984 22.1609 22.3988 21.8064 22.1234C21.4518 21.848 21.0736 21.528 20.6718 21.1636C20.27 20.791 19.8918 20.2969 19.5373 19.6813C19.2536 19.1953 19.0133 18.7093 18.8164 18.2234C18.6194 17.7293 18.4224 17.2797 18.2255 16.8748C18.0364 16.4617 17.8039 16.1296 17.5282 15.8785C17.2603 15.6193 16.9136 15.4897 16.4882 15.4897C16.0627 15.4897 15.7161 15.6193 15.4482 15.8785C15.1803 16.1296 14.9479 16.4617 14.7509 16.8748C14.5539 17.2797 14.357 17.7293 14.16 18.2234C13.963 18.7093 13.7267 19.1913 13.4509 19.6692C13.0885 20.2928 12.7064 20.791 12.3045 21.1636C11.9027 21.528 11.5245 21.848 11.17 22.1234C10.8155 22.3988 10.5239 22.6984 10.2955 23.0224C10.0748 23.3464 9.96455 23.7757 9.96455 24.3103C9.96455 24.9097 10.1694 25.3997 10.5791 25.7804C10.9967 26.1692 11.5285 26.3636 12.1745 26.3636ZM3.5 14.7364C3.5 13.3271 3.80727 12.1931 4.42182 11.3346C5.04424 10.4679 5.8597 10.0346 6.86818 10.0346C7.87667 10.0346 8.68818 10.4679 9.30273 11.3346C9.92515 12.1931 10.2364 13.3271 10.2364 14.7364C10.2364 16.1539 9.92515 17.2959 9.30273 18.1626C8.68818 19.0212 7.87667 19.4505 6.86818 19.4505C5.8597 19.4505 5.04424 19.0212 4.42182 18.1626C3.80727 17.2959 3.5 16.1539 3.5 14.7364ZM5.82818 14.7364C5.82818 15.4492 5.92273 16.0202 6.11182 16.4495C6.30091 16.8788 6.55303 17.0894 6.86818 17.0813C7.17545 17.0894 7.42364 16.8788 7.61273 16.4495C7.8097 16.0202 7.90818 15.4492 7.90818 14.7364C7.90818 14.0318 7.8097 13.4648 7.61273 13.0355C7.42364 12.6062 7.17545 12.3956 6.86818 12.4037C6.55303 12.3956 6.30091 12.6062 6.11182 13.0355C5.92273 13.4648 5.82818 14.0318 5.82818 14.7364ZM9.26727 7.70187C9.26727 6.28442 9.57455 5.14642 10.1891 4.28785C10.8036 3.42928 11.6152 3 12.6236 3C13.64 3 14.4555 3.42928 15.07 4.28785C15.6924 5.14642 16.0036 6.28442 16.0036 7.70187C16.0036 9.11121 15.6924 10.2492 15.07 11.1159C14.4555 11.9745 13.64 12.4037 12.6236 12.4037C11.6152 12.4037 10.8036 11.9745 10.1891 11.1159C9.57455 10.2492 9.26727 9.11121 9.26727 7.70187ZM11.5955 7.70187C11.5955 8.40654 11.69 8.97352 11.8791 9.4028C12.0682 9.83209 12.3164 10.0427 12.6236 10.0346C12.9388 10.0427 13.1909 9.83209 13.38 9.4028C13.577 8.97352 13.6755 8.40654 13.6755 7.70187C13.6755 6.9891 13.577 6.41807 13.38 5.98879C13.1909 5.5595 12.9388 5.34891 12.6236 5.35701C12.3164 5.34891 12.0682 5.5595 11.8791 5.98879C11.69 6.41807 11.5955 6.9891 11.5955 7.70187ZM17.0082 7.70187C17.0082 6.30062 17.3155 5.16667 17.93 4.3C18.5524 3.43333 19.3679 3 20.3764 3C21.3848 3 22.1964 3.43333 22.8109 4.3C23.4255 5.15857 23.7327 6.29252 23.7327 7.70187C23.7327 9.10312 23.4255 10.2371 22.8109 11.1037C22.1964 11.9704 21.3848 12.4037 20.3764 12.4037C19.7067 12.4037 19.1158 12.2053 18.6036 11.8084C18.0994 11.4115 17.7055 10.8607 17.4218 10.1561C17.1461 9.4514 17.0082 8.63333 17.0082 7.70187ZM19.3482 7.70187C19.3482 8.38224 19.4467 8.93302 19.6436 9.35421C19.8406 9.77539 20.0848 9.98598 20.3764 9.98598C20.66 9.98598 20.9003 9.77944 21.0973 9.36635C21.2942 8.94517 21.3927 8.39034 21.3927 7.70187C21.3927 7.0134 21.2942 6.46262 21.0973 6.04953C20.9003 5.62835 20.66 5.41776 20.3764 5.41776C20.0848 5.41776 19.8406 5.62835 19.6436 6.04953C19.4467 6.47072 19.3482 7.0215 19.3482 7.70187ZM22.7755 14.7364C22.7755 13.3433 23.0827 12.2134 23.6973 11.3467C24.3197 10.472 25.1352 10.0346 26.1436 10.0346C27.1521 10.0346 27.9636 10.4679 28.5782 11.3346C29.1927 12.2012 29.5 13.3352 29.5 14.7364C29.5 16.1458 29.1927 17.2838 28.5782 18.1505C27.9636 19.0171 27.1521 19.4505 26.1436 19.4505C25.1352 19.4505 24.3197 19.0171 23.6973 18.1505C23.0827 17.2838 22.7755 16.1458 22.7755 14.7364ZM25.1155 14.7364C25.1155 15.433 25.2139 15.9919 25.4109 16.4131C25.6079 16.8343 25.8521 17.0449 26.1436 17.0449C26.4273 17.0449 26.6676 16.8343 26.8645 16.4131C27.0615 15.9919 27.16 15.433 27.16 14.7364C27.16 14.048 27.0615 13.4931 26.8645 13.072C26.6676 12.6508 26.4273 12.4402 26.1436 12.4402C25.8521 12.4402 25.6079 12.6548 25.4109 13.0841C25.2139 13.5053 25.1155 14.0561 25.1155 14.7364Z" fill="white"/>
</svg>
